<svg width="30" height="37" viewBox="0 0 30 37" fill="none" xmlns="http://www.w3.org/2000/svg">
<path d="M14.8512 0C16.6112 0 18.2752 0.272 19.8432 0.816001C21.4112 1.328 22.8192 2.064 24.0672 3.024C25.3152 3.952 26.3392 5.04 27.1392 6.288C27.9392 7.536 28.4672 8.88 28.7232 10.32C28.8192 10.768 28.8192 11.056 28.7232 11.184C28.6592 11.312 28.4992 11.392 28.2432 11.424L22.7712 11.808C22.5152 11.808 22.3552 11.76 22.2912 11.664C22.2272 11.536 22.1632 11.36 22.0992 11.136C21.7152 9.344 20.9312 7.888 19.7472 6.768C18.5632 5.616 16.9952 5.04 15.0432 5.04C12.3232 5.04 10.2112 6.096 8.70719 8.208C7.20319 10.32 7.56319 14.052 7.56319 18.596C7.56319 23.076 7.17119 25.968 8.61119 28.08C10.0832 30.192 12.2752 31.248 15.1872 31.248C17.1712 31.248 18.8672 30.768 20.2752 29.808C21.6832 28.816 22.8352 27.168 23.7312 24.864C23.8272 24.608 24.0832 24.5 24.5632 24.596L28.6752 25.488C28.8032 25.52 28.9152 25.6 29.0112 25.728C29.1392 25.856 29.1712 26.128 29.1072 26.544C28.9152 27.28 28.5792 28.096 28.0992 28.992C27.6192 29.888 26.9952 30.784 26.2272 31.68C25.4592 32.576 24.5152 33.392 23.3952 34.128C22.3072 34.864 21.0592 35.456 19.6512 35.904C18.2432 36.352 16.6592 36.576 14.8992 36.576C11.6352 36.576 8.80319 35.808 6.40319 34.272C4.03519 32.736 2.21119 30.592 0.93119 27.84C-0.34881 25.056 0.0632324 22.308 0.0632324 18.596C0.0632324 14.852 -0.34881 11.136 0.93119 8.448C2.21119 5.76 4.03519 3.68 6.40319 2.208C8.77119 0.736 11.5872 0 14.8512 0Z" fill="#70DA1C"/>
</svg>
