<svg width="250" height="37" viewBox="0 0 250 37" fill="none" xmlns="http://www.w3.org/2000/svg">
<path d="M16.224 0C18.08 0 19.808 0.272 21.408 0.816001C23.04 1.328 24.496 2.064 25.776 3.024C27.056 3.984 28.096 5.104 28.896 6.384C29.728 7.664 30.272 9.056 30.528 10.56C30.656 11.072 30.672 11.408 30.576 11.568C30.512 11.728 30.336 11.824 30.048 11.856L23.568 12.288C23.28 12.288 23.088 12.24 22.992 12.144C22.928 12.016 22.864 11.824 22.8 11.568C22.448 9.904 21.76 8.544 20.736 7.488C19.712 6.4 18.288 5.856 16.464 5.856C14.064 5.856 12.176 6.832 10.8 8.784C9.456 10.704 8.784 13.824 8.784 18.144C8.784 22.432 9.424 25.552 10.704 27.504C12.016 29.424 13.968 30.384 16.56 30.384C18.416 30.384 20.016 29.92 21.36 28.992C22.704 28.064 23.808 26.48 24.672 24.24C24.8 23.952 25.152 23.856 25.728 23.952L30.432 24.96C30.592 24.992 30.736 25.088 30.864 25.248C30.992 25.376 31.024 25.68 30.96 26.16C30.8 26.832 30.48 27.616 30 28.512C29.552 29.408 28.944 30.336 28.176 31.296C27.408 32.224 26.448 33.088 25.296 33.888C24.176 34.688 22.864 35.344 21.36 35.856C19.856 36.336 18.144 36.576 16.224 36.576C12.928 36.576 10.048 35.792 7.584 34.224C5.152 32.656 3.28 30.48 1.968 27.696C0.656 24.912 0 21.68 0 18C0 14.288 0.656 11.104 1.968 8.448C3.28 5.76 5.152 3.68 7.584 2.208C10.016 0.736 12.896 0 16.224 0Z" fill="#EDEDED"/>
<path d="M48.9893 33.648C47.9973 34.544 46.8772 35.264 45.6292 35.808C44.4132 36.32 43.0053 36.576 41.4053 36.576C38.9733 36.576 37.0532 35.92 35.6452 34.608C34.2692 33.296 33.5812 31.616 33.5812 29.568C33.5812 27.776 34.1412 26.208 35.2612 24.864C36.3812 23.52 37.9812 22.48 40.0612 21.744C42.1412 20.976 44.6213 20.56 47.5013 20.496L49.1813 20.352C49.3733 20.352 49.5493 20.304 49.7093 20.208C49.8693 20.112 49.9492 19.936 49.9492 19.68V18.672C49.9492 17.456 49.5972 16.512 48.8932 15.84C48.1892 15.136 47.1813 14.784 45.8693 14.784C44.9093 14.784 43.9813 15.008 43.0853 15.456C42.2213 15.872 41.4853 16.608 40.8773 17.664C40.7813 17.888 40.6692 18.032 40.5412 18.096C40.4132 18.16 40.1733 18.16 39.8213 18.096L35.0213 16.992C34.8293 16.928 34.6852 16.832 34.5892 16.704C34.5252 16.544 34.5892 16.224 34.7812 15.744C35.5813 13.856 36.9573 12.464 38.9093 11.568C40.8933 10.64 43.3252 10.176 46.2052 10.176C48.8612 10.176 50.9733 10.512 52.5413 11.184C54.1093 11.856 55.2452 12.8 55.9492 14.016C56.6532 15.2 57.0053 16.592 57.0053 18.192V35.04C57.0053 35.424 56.9413 35.696 56.8133 35.856C56.6853 36.016 56.4452 36.096 56.0933 36.096H51.1493C50.7972 36.096 50.5413 35.968 50.3813 35.712C50.2533 35.456 50.1733 35.136 50.1413 34.752L50.0452 33.696C49.9812 33.12 49.6293 33.104 48.9893 33.648ZM49.9492 24.768C49.9492 24.224 49.7093 23.952 49.2293 23.952L47.8853 24.048C47.0533 24.08 46.2213 24.208 45.3893 24.432C44.5573 24.624 43.8053 24.912 43.1333 25.296C42.4613 25.648 41.9013 26.112 41.4533 26.688C41.0373 27.232 40.8293 27.872 40.8293 28.608C40.8293 29.568 41.1652 30.336 41.8372 30.912C42.5092 31.456 43.4373 31.728 44.6213 31.728C45.4213 31.728 46.1252 31.6 46.7332 31.344C47.3733 31.088 47.9172 30.784 48.3652 30.432C48.8452 30.016 49.2292 29.6 49.5173 29.184C49.8053 28.768 49.9492 28.336 49.9492 27.888V24.768Z" fill="#EDEDED"/>
<path d="M69.7481 34.944C69.7481 35.36 69.6521 35.664 69.4601 35.856C69.2681 36.016 68.9321 36.096 68.4521 36.096H63.4121C62.9961 36.096 62.7081 36.016 62.5481 35.856C62.4201 35.696 62.3561 35.44 62.3561 35.088V11.568C62.3561 10.96 62.6121 10.656 63.1241 10.656H69.0281C69.5081 10.656 69.7481 10.928 69.7481 11.472V34.944ZM69.8441 6.384C69.8441 7.184 69.4121 7.584 68.5481 7.584H63.3641C62.9481 7.584 62.6601 7.488 62.5001 7.296C62.3721 7.104 62.3081 6.832 62.3081 6.48V1.44C62.3081 0.799999 62.5801 0.48 63.1241 0.48H69.0761C69.5881 0.48 69.8441 0.783999 69.8441 1.392V6.384Z" fill="#EDEDED"/>
<path d="M86.7712 36.576C84.2432 36.576 82.0032 36.016 80.0512 34.896C78.1312 33.776 76.6273 32.24 75.5393 30.288C74.4513 28.304 73.9072 26.048 73.9072 23.52C73.9072 20.864 74.4672 18.544 75.5872 16.56C76.7072 14.544 78.2433 12.976 80.1953 11.856C82.1473 10.736 84.3553 10.176 86.8193 10.176C89.4113 10.176 91.6672 10.752 93.5872 11.904C95.5073 13.024 96.9953 14.592 98.0513 16.608C99.1393 18.592 99.6833 20.88 99.6833 23.472C99.6833 26.032 99.1393 28.304 98.0513 30.288C96.9633 32.24 95.4432 33.776 93.4912 34.896C91.5712 36.016 89.3312 36.576 86.7712 36.576ZM86.8193 31.68C88.0033 31.68 88.9952 31.376 89.7952 30.768C90.5953 30.128 91.1873 29.184 91.5713 27.936C91.9873 26.688 92.1953 25.168 92.1953 23.376C92.1953 21.488 91.9873 19.936 91.5713 18.72C91.1873 17.472 90.5953 16.528 89.7952 15.888C88.9952 15.248 88.0033 14.928 86.8193 14.928C85.6673 14.928 84.6752 15.248 83.8432 15.888C83.0432 16.528 82.4352 17.472 82.0192 18.72C81.6032 19.936 81.3952 21.488 81.3952 23.376C81.3952 25.2 81.6032 26.736 82.0192 27.984C82.4352 29.2 83.0432 30.128 83.8432 30.768C84.6752 31.376 85.6673 31.68 86.8193 31.68Z" fill="#EDEDED"/>
<path d="M134.852 8.88C134.148 8.112 133.268 7.424 132.212 6.816C131.188 6.208 129.716 5.904 127.796 5.904C125.78 5.904 124.276 6.272 123.284 7.008C122.292 7.712 121.796 8.624 121.796 9.744C121.796 10.128 121.892 10.544 122.084 10.992C122.276 11.44 122.66 11.872 123.236 12.288C123.812 12.704 124.628 13.072 125.684 13.392L133.268 15.552C136.212 16.352 138.356 17.648 139.7 19.44C141.044 21.2 141.716 23.248 141.716 25.584C141.716 27.824 141.14 29.776 139.988 31.44C138.836 33.072 137.188 34.336 135.044 35.232C132.9 36.128 130.356 36.576 127.412 36.576C125.236 36.576 123.188 36.336 121.268 35.856C119.38 35.344 117.7 34.624 116.228 33.696C114.788 32.736 113.652 31.632 112.82 30.384C112.66 30.064 112.596 29.808 112.628 29.616C112.66 29.392 112.82 29.168 113.108 28.944L116.804 26.4C117.188 26.176 117.492 26.08 117.716 26.112C117.972 26.144 118.196 26.272 118.388 26.496C119.156 27.456 119.908 28.256 120.644 28.896C121.412 29.536 122.292 30 123.284 30.288C124.276 30.576 125.46 30.72 126.836 30.72C128.916 30.72 130.58 30.4 131.828 29.76C133.076 29.088 133.7 28.064 133.7 26.688C133.7 26.144 133.572 25.648 133.316 25.2C133.06 24.72 132.644 24.304 132.068 23.952C131.524 23.568 130.74 23.216 129.716 22.896L122.468 20.832C120.58 20.288 118.996 19.52 117.716 18.528C116.436 17.536 115.46 16.368 114.788 15.024C114.148 13.68 113.828 12.272 113.828 10.8C113.828 8.752 114.388 6.912 115.508 5.28C116.66 3.648 118.26 2.368 120.308 1.44C122.388 0.48 124.804 0 127.556 0C129.38 0 131.076 0.208 132.644 0.624001C134.244 1.04 135.684 1.616 136.964 2.352C138.244 3.088 139.284 3.984 140.084 5.04C140.212 5.2 140.308 5.392 140.372 5.616C140.436 5.808 140.34 6.016 140.084 6.24L136.052 9.216C135.86 9.344 135.684 9.392 135.524 9.36C135.364 9.296 135.14 9.136 134.852 8.88Z" fill="#EDEDED"/>
<path d="M157.881 36.576C155.353 36.576 153.113 36.016 151.161 34.896C149.241 33.776 147.737 32.24 146.649 30.288C145.561 28.304 145.017 26.048 145.017 23.52C145.017 20.864 145.577 18.544 146.697 16.56C147.817 14.544 149.353 12.976 151.305 11.856C153.257 10.736 155.465 10.176 157.929 10.176C160.521 10.176 162.777 10.752 164.697 11.904C166.617 13.024 168.105 14.592 169.161 16.608C170.249 18.592 170.793 20.88 170.793 23.472C170.793 26.032 170.249 28.304 169.161 30.288C168.073 32.24 166.553 33.776 164.601 34.896C162.681 36.016 160.441 36.576 157.881 36.576ZM157.929 31.68C159.113 31.68 160.105 31.376 160.905 30.768C161.705 30.128 162.297 29.184 162.681 27.936C163.097 26.688 163.305 25.168 163.305 23.376C163.305 21.488 163.097 19.936 162.681 18.72C162.297 17.472 161.705 16.528 160.905 15.888C160.105 15.248 159.113 14.928 157.929 14.928C156.777 14.928 155.785 15.248 154.953 15.888C154.153 16.528 153.545 17.472 153.129 18.72C152.713 19.936 152.505 21.488 152.505 23.376C152.505 25.2 152.713 26.736 153.129 27.984C153.545 29.2 154.153 30.128 154.953 30.768C155.785 31.376 156.777 31.68 157.929 31.68Z" fill="#EDEDED"/>
<path d="M185.415 31.248C186.407 31.248 187.335 30.992 188.199 30.48C189.095 29.936 189.911 29.248 190.647 28.416V11.76C190.647 11.024 191.063 10.656 191.895 10.656H197.079C197.751 10.656 198.087 10.992 198.087 11.664L197.991 35.232C197.991 35.808 197.735 36.096 197.223 36.096H191.511C191.031 36.096 190.791 35.824 190.791 35.28V32.928C190.791 32.736 190.743 32.624 190.647 32.592C190.551 32.528 190.423 32.576 190.263 32.736C188.919 34.112 187.575 35.104 186.231 35.712C184.919 36.288 183.511 36.576 182.007 36.576C180.599 36.576 179.335 36.272 178.215 35.664C177.127 35.056 176.263 34.176 175.623 33.024C174.983 31.84 174.663 30.448 174.663 28.848V11.808C174.663 11.04 175.047 10.656 175.815 10.656H181.143C181.751 10.656 182.055 10.992 182.055 11.664V27.792C182.055 28.848 182.343 29.696 182.919 30.336C183.527 30.944 184.359 31.248 185.415 31.248Z" fill="#EDEDED"/>
<path d="M202.781 36.096C202.397 36.096 202.141 36.032 202.013 35.904C201.885 35.776 201.821 35.52 201.821 35.136V33.264C201.821 32.88 201.869 32.576 201.965 32.352C202.061 32.128 202.285 31.76 202.637 31.248L214.349 15.984C214.669 15.536 214.541 15.312 213.965 15.312H203.741C203.389 15.312 203.149 15.248 203.021 15.12C202.925 14.992 202.877 14.768 202.877 14.448V11.424C202.877 10.912 203.101 10.656 203.549 10.656H223.421C223.901 10.656 224.141 10.896 224.141 11.376V13.536C224.141 13.824 224.077 14.096 223.949 14.352C223.853 14.576 223.677 14.864 223.421 15.216L211.565 30.624C211.181 31.136 211.277 31.392 211.853 31.392H223.373C223.949 31.392 224.237 31.632 224.237 32.112V35.232C224.237 35.488 224.157 35.696 223.997 35.856C223.869 36.016 223.629 36.096 223.277 36.096H202.781Z" fill="#EDEDED"/>
<path d="M241.88 33.648C240.888 34.544 239.768 35.264 238.52 35.808C237.304 36.32 235.896 36.576 234.296 36.576C231.864 36.576 229.944 35.92 228.536 34.608C227.16 33.296 226.472 31.616 226.472 29.568C226.472 27.776 227.032 26.208 228.152 24.864C229.272 23.52 230.872 22.48 232.952 21.744C235.032 20.976 237.512 20.56 240.392 20.496L242.072 20.352C242.264 20.352 242.44 20.304 242.6 20.208C242.76 20.112 242.84 19.936 242.84 19.68V18.672C242.84 17.456 242.488 16.512 241.784 15.84C241.08 15.136 240.072 14.784 238.76 14.784C237.8 14.784 236.872 15.008 235.976 15.456C235.112 15.872 234.376 16.608 233.768 17.664C233.672 17.888 233.56 18.032 233.432 18.096C233.304 18.16 233.064 18.16 232.712 18.096L227.912 16.992C227.72 16.928 227.576 16.832 227.48 16.704C227.416 16.544 227.48 16.224 227.672 15.744C228.472 13.856 229.848 12.464 231.8 11.568C233.784 10.64 236.216 10.176 239.096 10.176C241.752 10.176 243.864 10.512 245.432 11.184C247 11.856 248.136 12.8 248.84 14.016C249.544 15.2 249.896 16.592 249.896 18.192V35.04C249.896 35.424 249.832 35.696 249.704 35.856C249.576 36.016 249.336 36.096 248.984 36.096H244.04C243.688 36.096 243.432 35.968 243.272 35.712C243.144 35.456 243.064 35.136 243.032 34.752L242.936 33.696C242.872 33.12 242.52 33.104 241.88 33.648ZM242.84 24.768C242.84 24.224 242.6 23.952 242.12 23.952L240.776 24.048C239.944 24.08 239.112 24.208 238.28 24.432C237.448 24.624 236.696 24.912 236.024 25.296C235.352 25.648 234.792 26.112 234.344 26.688C233.928 27.232 233.72 27.872 233.72 28.608C233.72 29.568 234.056 30.336 234.728 30.912C235.4 31.456 236.328 31.728 237.512 31.728C238.312 31.728 239.016 31.6 239.624 31.344C240.264 31.088 240.808 30.784 241.256 30.432C241.736 30.016 242.12 29.6 242.408 29.184C242.696 28.768 242.84 28.336 242.84 27.888V24.768Z" fill="#EDEDED"/>
</svg>
